<?xml version="1.0" encoding="UTF-8"?>
<svg id="Layer_2" xmlns="http://www.w3.org/2000/svg" viewBox="0 0 147.8 48.66">
    <defs>
        <style>
            .cls-1{fill:#f6f086;}.cls-2{fill:#ecbbb7;}.cls-3{fill:#ffde2f;}.cls-4{fill:#f68b33;}.cls-5{fill:#ef4d8f;}.cls-6{fill:#9ddcf9;}.cls-7{fill:#8fa955;}.cls-8{fill:#cadb36;}.cls-9{fill:#14b1e7;}.cls-10{fill:#231f20;}.cls-11{fill:#1955a6;}
        </style>
    </defs>
    <g id="Livello_1">
        <polygon class="cls-11" points="46.18 25.53 46.18 38.01 36.32 31.03 46.18 25.53"/>
        <polygon class="cls-7" points="26.5 25.53 26.5 38.01 36.37 31.03 26.5 25.53"/>
        <polygon class="cls-3" points="36.37 12.91 23.61 20.1 36.37 20.07 36.37 12.91"/>
        <polygon class="cls-2" points="36.36 12.91 49.11 20.1 36.36 20.07 36.36 12.91"/>
        <polygon class="cls-8" points="36.37 31.03 23.64 39.96 36.37 39.96 36.37 31.03"/>
        <polygon class="cls-9" points="36.36 31.03 49.1 39.96 36.36 39.96 36.36 31.03"/>
        <polygon class="cls-1" points="23.64 39.96 36.36 39.96 36.36 48.66 23.64 39.96"/>
        <polygon class="cls-6" points="49.06 39.96 36.36 39.96 36.36 48.66 49.06 39.96"/>
        <polygon class="cls-4" points="23.64 20.07 36.4 20.07 36.4 27.15 23.64 20.07"/>
        <polygon class="cls-5" points="49.12 20.07 36.37 20.07 36.37 27.15 49.12 20.07"/>
        <polygon class="cls-10"
                 points="49.1 39.99 49.1 20.07 36.37 27.15 23.64 20.07 23.64 39.98 26.5 41.92 26.5 25.53 36.37 30.98 46.18 25.52 46.18 41.92 49.1 39.99"/>
        <path class="cls-10"
              d="m86.61,32.74c1.11-.42,2.02-1.09,2.72-1.98.87-1.1,1.32-2.42,1.32-3.91,0-.97-.17-1.87-.5-2.67-.34-.81-.85-1.53-1.52-2.12-.66-.58-1.48-1.03-2.43-1.33-.93-.3-2-.45-3.21-.45h-8.24v21.82h2.89v-19.05h5.36c1.54,0,2.73.34,3.55.98.78.63,1.16,1.55,1.16,2.81s-.38,2.18-1.16,2.81c-.82.65-2.01.99-3.55.99h-3.53v2.74h4.27l4.05,8.71h3.18l-4.33-9.36Z"/>
        <polygon class="cls-10"
                 points="93.11 20.28 93.11 23.08 99.67 23.08 99.67 42.1 102.57 42.1 102.57 23.08 109.16 23.08 109.16 20.28 93.11 20.28"/>
        <path class="cls-10"
              d="m62.91,20.28h-2.43l-8.37,21.82h3.05l2.64-6.84,7.94.04,2.63,6.8h3.02l-8.47-21.82Zm-4.17,12.41l2.95-7.74,3.01,7.75h-5.96Z"/>
        <path class="cls-10"
              d="m19.33,33.6c-.29-.7-.71-1.35-1.25-1.91-.53-.54-1.16-1-1.9-1.36-.73-.36-1.55-.59-2.4-.7l-3.91-.49c-.43-.06-.84-.15-1.23-.29-.37-.13-.68-.3-.95-.52-.26-.22-.46-.49-.63-.83-.16-.33-.24-.75-.24-1.27,0-.56.1-1.02.32-1.4.25-.43.52-.78.85-1.07.42-.37.94-.64,1.53-.81.62-.17,1.28-.26,1.95-.26.86,0,1.66.14,2.38.42.68.26,1.21.63,1.59,1.11.29.33.51.67.65,1.02.15.36.27.78.33,1.24l.09.58h2.89l-.06-.73c-.07-.82-.26-1.55-.56-2.19-.3-.62-.7-1.21-1.18-1.75-.65-.75-1.55-1.36-2.67-1.82-1.1-.45-2.26-.67-3.46-.67-1.05,0-2.07.17-3.03.5-.98.34-1.84.83-2.54,1.47-.58.52-1.06,1.14-1.44,1.82-.4.71-.6,1.57-.6,2.55,0,.88.15,1.67.43,2.34.29.69.71,1.28,1.23,1.77.51.49,1.12.88,1.82,1.17.66.27,1.4.46,2.21.57l3.85.49c.54.06,1.04.2,1.46.41.43.21.78.46,1.08.76.28.29.51.62.66,1,.15.36.22.74.22,1.14,0,.55-.09,1.03-.27,1.42-.19.4-.44.75-.74,1.04-.49.46-1.1.8-1.82,1.01-.76.22-1.57.33-2.4.33s-1.56-.13-2.28-.38c-.7-.24-1.3-.61-1.78-1.09-.34-.35-.63-.77-.88-1.25-.24-.47-.38-.97-.45-1.52l-.08-.59h-2.94l.07.75c.09.87.32,1.69.68,2.44.35.75.82,1.43,1.37,2.02.76.81,1.69,1.42,2.77,1.82,1.06.39,2.24.59,3.51.59s2.45-.18,3.53-.53c1.09-.36,2.04-.92,2.82-1.67.54-.53.98-1.14,1.31-1.83.34-.71.52-1.58.52-2.58,0-.8-.15-1.56-.44-2.28"/>
        <polygon class="cls-10"
                 points="137.44 42.18 139.36 42.18 147.8 20.18 145.6 20.18 138.42 39.05 131.08 20.18 115.01 20.18 115.01 22.19 121.91 22.19 121.91 42.18 124.01 42.18 124.01 22.19 129.69 22.19 137.44 42.18"/>
        <polygon class="cls-10"
                 points="46.18 25.52 46.18 41.92 49.1 39.99 49.1 20.07 36.37 27.15 36.37 30.98 46.18 25.52"/>
        <path class="cls-10"
              d="m1.5,4.65C.39,4.25.07,3.36.07,2.5v-.22C.07.81.9,0,2.56,0h.82c1.31,0,2.12.56,2.12,1.92,0,.31-.16.6-.6.6-.42,0-.6-.29-.6-.6,0-.54-.38-.77-.92-.77h-.82c-.9,0-1.28.34-1.28,1.13v.22c0,.54.32.86.71,1.01l2.34.84c1,.35,1.51,1.08,1.51,2.21v.46c0,1.47-.83,2.41-2.49,2.41h-1.23c-1.31,0-2.12-.56-2.12-1.92,0-.31.15-.6.6-.6.42,0,.6.29.6.6,0,.55.38.77.92.77h1.23c.9,0,1.29-.47,1.29-1.26v-.46c0-.57-.26-.89-.66-1.03l-2.49-.87Z"/>
        <path class="cls-10"
              d="m10.12,2.49c1.29,0,2.09.83,2.09,2.02v4.19c0,.31-.19.6-.6.6h-2.41c-1.2,0-1.98-.56-1.98-1.77v-1.01c0-1.2.78-1.75,1.98-1.75h1.83v-.25c0-.66-.38-.93-.92-.93h-1.69c-.32,0-.59-.16-.59-.55s.26-.55.59-.55h1.69Zm.92,5.71v-2.33h-1.83c-.54,0-.8.26-.8.68v.98c0,.39.26.67.8.67h1.83Z"/>
        <path class="cls-10"
              d="m20.4,4.87c0-.79-.37-1.26-1.24-1.26h-.75v5.21c0,.32-.16.6-.59.6s-.59-.29-.59-.6V3.61h-1.99v5.21c0,.32-.15.6-.59.6s-.59-.29-.59-.6V3.09c0-.33.17-.6.59-.6h4.5c1.63,0,2.42.92,2.42,2.38v3.95c0,.32-.15.6-.59.6s-.59-.29-.59-.6v-3.95Z"/>
        <path class="cls-10"
              d="m25.16,9.42c-1.2,0-1.92-.49-1.92-1.58,0-.34.13-.61.58-.61s.55.27.58.61c.01.3.29.52.76.52h1.06c.63,0,.82-.31.82-.71v-.46c0-.31-.16-.48-.48-.58l-2.06-.57c-.79-.22-1.19-.76-1.19-1.61v-.31c0-1.2.68-1.77,1.99-1.77h.73c1.2,0,1.93.48,1.93,1.58,0,.34-.13.61-.58.61s-.56-.27-.59-.61c-.01-.3-.28-.52-.75-.52h-.74c-.64,0-.84.31-.84.71v.31c0,.29.16.48.48.58l2.04.56c.8.22,1.21.74,1.21,1.62v.46c0,1.21-.69,1.77-1.98,1.77h-1.06Z"/>
        <path class="cls-10"
              d="m30.95,6.91c0,.79.37,1.26,1.24,1.26h1.57V2.96c0-.31.14-.6.59-.6.42,0,.59.29.59.6v5.73c0,.32-.17.6-.59.6h-2.16c-1.64,0-2.42-.91-2.42-2.38v-3.95c0-.31.16-.6.59-.6.45,0,.59.29.59.6v3.95Z"/>
        <path class="cls-10"
              d="m40.87,4.87c0-.79-.37-1.26-1.25-1.26h-1.57v5.21c0,.32-.15.6-.59.6-.42,0-.59-.29-.59-.6V3.09c0-.33.17-.6.59-.6h2.16c1.64,0,2.42.92,2.42,2.38v3.95c0,.32-.15.6-.59.6s-.59-.29-.59-.6v-3.95Z"/>
        <path class="cls-10"
              d="m48.92,10.01c0,1.45-.82,2.55-2.46,2.55h-1.46c-.3,0-.58-.15-.58-.56,0-.39.28-.56.58-.56h1.46c.88,0,1.29-.59,1.29-1.43v-.72h-1.59c-1.64,0-2.41-.91-2.41-2.38v-1.86c0-1.46.82-2.57,2.45-2.57h2.12c.43,0,.6.29.6.6v6.92Zm-2.72-6.4c-.88,0-1.27.6-1.27,1.44v1.86c0,.79.35,1.26,1.23,1.26h1.59V3.61h-1.54Z"/>
    </g>
</svg>